<?xml version="1.0" standalone="no"?>
<!DOCTYPE svg PUBLIC "-//W3C//DTD SVG 20010904//EN"
 "http://www.w3.org/TR/2001/REC-SVG-20010904/DTD/svg10.dtd">
<svg version="1.0" xmlns="http://www.w3.org/2000/svg"
 width="436.000000pt" height="433.000000pt" viewBox="0 0 436.000000 433.000000"
 preserveAspectRatio="xMidYMid meet">

<g transform="translate(0.000000,433.000000) scale(0.100000,-0.100000)"
fill="#000000" stroke="none">
<path d="M1955 4249 c-378 -40 -768 -196 -1065 -427 -711 -554 -993 -1465
-714 -2310 257 -783 964 -1347 1793 -1431 531 -55 1084 103 1501 427 711 554
993 1465 714 2310 -257 783 -964 1347 -1793 1431 -118 13 -318 12 -436 0z
m406 -70 c541 -55 1046 -317 1377 -714 264 -316 425 -698 472 -1120 63 -568
-188 -1233 -616 -1635 -348 -327 -790 -522 -1277 -563 -470 -39 -1006 126
-1396 431 -436 340 -708 836 -771 1407 -55 498 126 1066 472 1480 413 495
1105 779 1739 714z"/>
<path d="M2070 3953 c-73 -7 -236 -46 -319 -75 -343 -121 -605 -370 -736 -699
l-26 -66 -112 -21 c-62 -12 -129 -22 -149 -22 -75 0 -68 111 -68 -1111 0
-1026 1 -1100 17 -1106 26 -10 280 14 510 48 265 39 387 48 537 38 133 -8 201
-27 236 -65 23 -24 27 -24 184 -24 l160 0 76 39 c41 21 101 44 133 51 74 15
222 5 388 -26 191 -35 388 -55 570 -57 l164 -2 3 1099 c2 873 0 1101 -10 1108
-7 4 -40 8 -73 8 -102 0 -183 19 -381 85 -244 83 -341 99 -559 92 -230 -8
-346 -43 -434 -130 l-41 -40 -39 36 c-126 114 -376 163 -608 120 -58 -11 -103
-15 -103 -10 0 20 56 135 98 202 116 182 287 305 488 351 110 26 292 24 396
-4 99 -27 214 -80 291 -136 74 -52 200 -182 242 -248 21 -34 37 -48 52 -48 24
0 23 -4 44 160 6 52 20 128 30 169 11 41 19 82 19 91 0 13 -26 27 -92 53 -295
112 -636 166 -888 140z m-203 -768 c88 -20 171 -65 227 -121 44 -45 47 -51 44
-94 -3 -44 -4 -45 -40 -48 -39 -3 -55 -25 -44 -59 3 -10 8 -36 11 -58 2 -22 7
-53 11 -69 8 -38 -10 -26 -35 23 -24 47 -75 86 -123 95 -31 6 -39 3 -52 -16
-32 -46 -9 -88 49 -88 28 0 44 -10 89 -54 40 -40 53 -60 49 -75 -7 -28 -31
-34 -43 -11 -13 24 -52 28 -44 5 4 -8 10 -13 14 -10 5 3 11 -4 15 -15 3 -11
10 -20 15 -20 5 0 7 -7 3 -16 -3 -9 -13 -14 -24 -11 -11 3 -19 1 -19 -3 0 -5
8 -11 18 -13 14 -4 13 -5 -4 -6 -11 0 -29 6 -40 14 -10 8 -29 15 -41 15 -13 0
-23 5 -23 11 0 6 -9 9 -20 6 -11 -3 -20 -1 -20 4 0 5 -11 2 -25 -7 -24 -16
-25 -15 -25 5 0 33 42 37 119 12 77 -25 92 -26 66 -7 -11 8 -25 12 -32 9 -7
-3 -13 2 -13 12 0 9 5 13 10 10 6 -3 10 4 9 17 0 13 -3 17 -6 10 -2 -6 -9 -10
-14 -6 -5 3 -9 -4 -9 -15 0 -18 -3 -19 -26 -11 -14 6 -45 10 -69 10 -51 0 -60
-11 -68 -78 -2 -23 -7 -46 -11 -49 -3 -4 1 -17 10 -31 14 -22 14 -25 -1 -41
-31 -36 -34 -73 -9 -121 26 -51 32 -48 8 3 -15 32 -15 36 0 53 65 76 75 81 68
34 -3 -21 -10 -30 -23 -30 -36 0 -34 -44 2 -55 10 -4 19 -11 19 -16 0 -6 -4
-7 -10 -4 -5 3 -10 1 -10 -5 0 -6 -4 -9 -9 -6 -10 6 -21 -26 -21 -62 0 -13 4
-20 10 -17 6 3 10 -3 10 -13 0 -15 5 -19 20 -15 18 5 20 0 20 -36 0 -26 4 -40
10 -36 6 3 10 -3 10 -15 0 -14 -4 -19 -12 -14 -9 5 -9 2 1 -9 12 -15 10 -17
-20 -18 l-34 -1 30 -7 c30 -7 30 -7 8 -19 -18 -10 -23 -10 -23 0 0 9 -3 9 -12
0 -14 -14 -32 -16 -24 -3 3 5 -1 11 -9 15 -8 3 -12 12 -9 21 3 8 1 15 -5 15
-16 0 -14 -22 5 -48 9 -13 22 -21 30 -18 8 3 14 1 14 -4 0 -10 60 18 60 28 0
4 18 26 40 50 22 24 40 47 40 53 0 20 18 -1 24 -28 4 -16 23 -52 43 -82 32
-49 37 -53 48 -37 11 14 17 15 34 7 11 -6 25 -19 30 -29 9 -15 12 -15 21 -2 7
10 10 -29 10 -127 l0 -141 -42 5 c-392 44 -658 318 -761 782 -31 139 -30 442
1 585 11 55 27 105 34 111 7 7 54 20 103 29 50 8 99 18 110 20 35 9 216 -4
282 -19z m1006 10 c59 -9 170 -39 278 -74 104 -35 223 -67 284 -77 l105 -17 0
-970 0 -970 -61 6 c-33 4 -151 27 -262 51 -304 67 -368 77 -539 83 -262 10
-386 -32 -479 -161 l-29 -39 0 240 0 240 83 7 c125 11 253 33 352 61 118 34
309 129 412 205 l82 60 -17 38 c-15 32 -17 73 -16 292 0 218 13 436 29 490 4
13 -21 15 -191 15 l-196 0 6 -55 c19 -177 27 -364 24 -580 l-3 -245 -85 -42
c-100 -50 -188 -69 -357 -79 l-122 -7 -3 152 c-2 83 -1 156 1 162 2 6 10 1 18
-11 15 -21 16 -21 35 -3 26 24 54 79 62 126 9 48 26 47 49 -3 20 -42 42 -70
57 -70 5 0 7 8 3 18 -5 14 -3 15 8 5 7 -7 18 -13 23 -13 6 0 0 7 -12 16 -26
18 -30 64 -6 64 11 0 14 6 8 23 -3 12 -3 19 1 15 12 -11 30 14 43 57 6 22 17
59 24 83 10 34 10 51 0 90 -7 26 -19 53 -27 61 -13 13 -13 17 0 31 12 13 13
29 7 79 -12 82 -20 90 -79 69 -45 -16 -47 -16 -64 3 -11 13 -20 16 -24 9 -4
-6 -15 -8 -24 -5 -10 3 -24 -1 -31 -10 -17 -20 -33 -19 -48 5 -10 17 -9 26 8
58 10 20 33 52 50 70 25 27 37 33 56 28 31 -8 64 9 64 33 0 10 -9 30 -21 45
-32 41 -79 31 -134 -28 -24 -25 -45 -46 -47 -46 -2 0 -3 53 -3 118 0 112 1
120 28 160 52 79 139 124 269 141 105 14 307 12 411 -4z m-1919 -232 c-25
-130 -25 -372 -1 -495 101 -510 470 -868 970 -942 58 -9 130 -16 161 -16 l56
0 0 -237 0 -236 -29 40 c-103 142 -304 171 -698 102 -65 -11 -192 -34 -283
-50 -91 -16 -211 -32 -267 -35 l-103 -7 0 972 c0 769 3 972 13 975 21 6 192
32 196 29 1 -1 -5 -46 -15 -100z m-224 -905 c0 -545 4 -979 9 -987 17 -27 170
-8 701 86 111 20 181 26 300 27 141 0 161 -2 215 -23 76 -30 145 -98 170 -166
10 -27 22 -54 26 -59 4 -5 21 20 37 55 73 159 231 229 489 214 139 -7 234 -22
503 -80 282 -61 369 -73 381 -54 5 8 9 430 9 987 0 857 2 972 15 972 13 0 15
-126 15 -1072 l0 -1071 -165 6 c-207 9 -318 21 -520 58 -216 39 -381 42 -476
6 -35 -13 -80 -34 -99 -46 -32 -19 -49 -21 -189 -21 -149 0 -154 1 -183 25
-58 49 -123 60 -348 60 -185 -1 -229 -4 -450 -38 -135 -20 -296 -40 -357 -43
l-113 -7 0 1071 c0 946 2 1072 15 1072 13 0 15 -115 15 -972z m1409 751 c-11
-7 -11 -9 -1 -9 7 0 10 -4 7 -10 -11 -18 -25 -10 -25 14 0 13 6 26 13 29 17 6
22 -14 6 -24z m-29 -29 c0 -30 -4 -50 -11 -50 -6 0 -9 6 -6 14 3 7 0 19 -6 26
-9 10 -9 11 1 6 6 -4 12 -2 12 3 0 6 -6 11 -12 12 -10 0 -10 2 0 6 10 4 10 8
1 19 -9 11 -8 14 5 14 13 0 16 -11 16 -50z m37 -30 c1 -11 -2 -22 -6 -25 -5
-2 -8 7 -8 20 0 30 12 34 14 5z m137 -141 c12 10 16 10 16 2 0 -7 5 -9 10 -6
16 10 12 -7 -7 -29 -18 -19 -17 -19 17 1 52 31 98 39 106 18 11 -27 -12 -41
-32 -20 -12 11 -19 14 -22 6 -2 -6 -12 -11 -23 -11 -10 0 -19 -4 -19 -10 0 -5
-9 -10 -20 -10 -11 0 -20 -4 -20 -10 0 -5 -7 -10 -15 -10 -8 0 -15 -4 -15 -10
0 -5 -15 -10 -32 -11 -28 0 -30 -2 -13 -9 19 -8 19 -9 -3 -9 -33 -1 -22 22 14
30 l29 7 -30 2 c-32 2 -30 3 32 25 12 4 24 13 27 21 6 16 -10 19 -19 4 -3 -5
-17 -10 -30 -10 l-24 0 22 23 c12 12 25 18 29 13 4 -6 13 -5 22 3z m-47 -55
c-3 -3 -12 -4 -19 -1 -8 3 -5 6 6 6 11 1 17 -2 13 -5z m-137 -25 c8 0 4 -4
-10 -8 -16 -5 -25 -14 -24 -27 0 -12 -7 -21 -18 -21 -10 -1 -18 2 -18 8 0 5
-4 9 -10 9 -5 0 -7 -7 -4 -15 4 -10 0 -15 -12 -15 -16 0 -17 2 -4 10 13 9 13
10 0 10 -12 1 -11 3 3 11 13 8 22 7 33 -1 9 -8 14 -9 14 -2 0 6 3 18 7 28 5
14 3 16 -11 11 -11 -4 -15 -3 -10 4 3 6 16 8 28 5 11 -3 28 -6 36 -7z m-30
-79 c11 -7 3 -10 -30 -9 -34 0 -40 2 -25 9 27 12 37 12 55 0z m158 3 c-10 -2
-28 -2 -40 0 -13 2 -5 4 17 4 22 1 32 -1 23 -4z m222 -59 c0 6 -10 20 -22 33
-17 18 -18 23 -6 23 9 0 20 -6 25 -12 14 -18 34 -80 24 -73 -5 3 -14 -9 -20
-27 -15 -41 -13 -49 3 -19 19 35 30 9 16 -37 -17 -51 -28 -60 -36 -28 -5 23
-11 27 -30 22 -28 -7 -31 5 -8 39 9 13 13 29 9 35 -11 18 -35 11 -45 -12 -8
-22 -9 -22 -9 -2 -1 32 -12 35 -32 10 -24 -31 -41 -76 -29 -76 5 0 7 -7 4 -15
-5 -12 -2 -14 12 -8 17 6 17 5 5 -10 -9 -12 -10 -17 -2 -17 8 0 9 -5 2 -19 -6
-10 -8 -21 -5 -24 3 -3 1 -13 -4 -23 -9 -16 -10 -16 -19 2 -18 33 -23 87 -13
129 8 33 6 42 -9 55 -9 8 -25 27 -34 43 -15 23 -15 27 -2 27 8 0 15 -3 15 -8
0 -13 54 -32 76 -26 14 4 24 16 28 36 6 31 26 30 26 -2 0 -10 5 -22 12 -26 8
-5 9 -2 4 11 -3 10 -4 27 0 38 6 19 9 18 35 -14 16 -19 29 -30 29 -25z m-230
36 c0 -5 -6 -10 -14 -10 -8 0 -18 5 -21 10 -3 6 3 10 14 10 12 0 21 -4 21 -10z
m-449 -43 c-16 -31 -31 -39 -31 -17 0 10 42 62 46 57 2 -2 -5 -20 -15 -40z
m263 -9 c-10 -10 -24 -16 -31 -14 -20 8 -64 -44 -53 -64 15 -28 22 -113 12
-140 l-9 -25 -7 30 c-3 17 -8 39 -10 51 -2 11 -11 36 -19 56 -9 20 -13 39 -10
41 3 3 -4 12 -16 19 -35 22 -26 38 20 35 27 -2 43 1 46 10 3 7 13 12 22 11 9
-2 15 2 14 8 -1 6 10 9 28 6 29 -4 29 -5 13 -24z m-180 -17 c-3 -9 -9 -25 -12
-35 -5 -19 -6 -19 -12 -1 -10 29 0 64 17 58 8 -3 12 -12 7 -22z m245 -85 c19
-44 81 -94 101 -81 5 3 10 28 10 54 0 30 6 53 14 60 12 10 14 6 11 -25 -2 -21
-7 -55 -10 -76 -7 -38 -7 -38 -55 -38 -26 0 -52 6 -58 13 -11 13 -71 15 -92 2
-8 -5 -11 -3 -8 6 3 8 17 14 33 14 19 0 29 6 31 18 1 9 -2 15 -7 11 -5 -3 -9
-1 -9 5 0 5 5 13 10 16 17 11 11 23 -17 33 -25 9 -26 10 -5 11 12 1 22 6 22
11 0 21 11 8 29 -34z m-39 -135 c0 -20 -36 -36 -46 -20 -10 17 5 39 26 39 13
0 20 -7 20 -19z m110 -1 c0 -13 -7 -20 -20 -20 -13 0 -20 7 -20 20 0 13 7 20
20 20 13 0 20 -7 20 -20z m98 -3 c2 -10 -3 -17 -12 -17 -10 0 -16 9 -16 21 0
24 23 21 28 -4z m-261 -61 c-4 -9 -11 -16 -17 -16 -17 0 -24 31 -9 41 18 11
34 -5 26 -25z m113 9 c0 -20 -5 -25 -25 -25 -20 0 -25 5 -25 25 0 20 5 25 25
25 20 0 25 -5 25 -25z m110 5 c0 -15 -7 -20 -25 -20 -18 0 -25 5 -25 20 0 15
7 20 25 20 18 0 25 -5 25 -20z m-172 -56 c3 -22 -21 -39 -39 -28 -11 6 -12 38
-2 48 13 13 38 1 41 -20z m112 1 c0 -18 -5 -25 -20 -25 -15 0 -20 7 -20 25 0
18 5 25 20 25 15 0 20 -7 20 -25z m80 9 c0 -8 -5 -12 -10 -9 -6 4 -8 11 -5 16
9 14 15 11 15 -7z m-35 -53 c-3 -6 -11 -8 -17 -5 -6 4 -5 9 3 15 16 10 23 4
14 -10z m-95 -11 c0 -11 -2 -20 -3 -20 -2 0 -12 9 -22 20 -18 19 -17 20 3 20
15 0 22 -6 22 -20z"/>
<path d="M1790 2061 c0 -25 6 -27 13 -6 4 8 2 17 -3 20 -6 4 -10 -3 -10 -14z"/>
<path d="M1760 2051 c0 -25 6 -27 13 -6 4 8 2 17 -3 20 -6 4 -10 -3 -10 -14z"/>
<path d="M2451 2064 c0 -11 3 -14 6 -6 3 7 2 16 -1 19 -3 4 -6 -2 -5 -13z"/>
<path d="M2484 2042 c6 -11 -31 -38 -46 -34 -5 1 -8 -3 -8 -9 0 -5 -4 -7 -10
-4 -5 3 -10 1 -10 -5 0 -7 7 -9 16 -6 9 3 23 6 31 6 9 0 14 3 10 6 -3 4 3 14
15 24 16 13 18 19 8 25 -8 5 -11 4 -6 -3z"/>
<path d="M3080 1490 l0 -200 88 0 c104 0 150 12 193 47 85 72 78 219 -14 300
-46 40 -91 53 -189 53 l-78 0 0 -200z m184 156 c43 -18 74 -63 88 -128 14 -69
4 -121 -31 -161 -27 -29 -34 -32 -105 -35 l-76 -4 0 171 0 171 45 0 c25 0 61
-6 79 -14z"/>
<path d="M864 1658 c7 -18 44 -111 82 -205 38 -95 74 -173 79 -173 7 0 147
307 183 401 2 5 -7 9 -21 9 -21 0 -28 -9 -51 -74 -14 -40 -42 -113 -62 -161
l-37 -87 -32 80 c-18 45 -45 117 -60 161 -26 80 -27 81 -61 81 l-34 0 14 -32z"/>
</g>
</svg>
